# xmcd
#
# Track frame offsets:
#	150
#	21751
#	46200
#	69028
#	92358
#	114923
#	146608
#	162480
#	186690
#	219809
#	237739
#	250057
#	269227
#	285195
#
# Disc length: 4033 seconds
#
# Revision: 0
# Processed by: cddbd v1.5.2PL0 Copyright (c) Steve Scherf et al.
# Submitted via: EasyCDDAExtractor 11.0.2.1
#
DISCID=c40fbf0e
DTITLE=Various Artist - TOKYO LOUNGE DISK2
DYEAR=1900
DGENRE=
TTITLE0=Every Hour
TTITLE1=Say Goodbye
TTITLE2=Things She Said Today
TTITLE3=Blue(Eivissa Re-work)
TTITLE4=Flor De Vida
TTITLE5=Foto Viva(Nicola Conte Remix)
TTITLE6=Knspiration
TTITLE7=Stardust Into Man
TTITLE8=9 In Istanbul,8 In Berlin
TTITLE9=Ghost and Roese
TTITLE10=Better World
TTITLE11=It Will Turn Out right
TTITLE12=Otoko Noko
TTITLE13=Missing Piece
EXTD=
EXTT0=
EXTT1=
EXTT2=
EXTT3=
EXTT4=
EXTT5=
EXTT6=
EXTT7=
EXTT8=
EXTT9=
EXTT10=
EXTT11=
EXTT12=
EXTT13=
PLAYORDER=
